<svg width="160" height="28" viewBox="0 0 160 28" fill="none" xmlns="http://www.w3.org/2000/svg">
<g transform="scale(0.1) translate(0, 15)">
<path d="M0 245.487C118.473 213.226 174.082 185.69 245 111.987H258.5C258.5 111.987 326.5 223.487 331.5 231.987C336.5 240.488 335 245.679 319.5 245.487C304 245.296 145.5 245.487 145.5 245.487C190.992 234.497 235 212.835 241.5 210.487C248 208.14 275 210.487 276.5 209.665C278 208.843 248 166.487 248 166.487C176.394 228.931 121.171 245.259 0 245.487Z" fill="#00D68F"/>
<path d="M224.5 67.043C224.5 64.543 196.5 17.5122 190 6.98741C183.5 -3.53738 174.5 -1.03741 169.5 6.98741C164.5 15.0122 55 198.487 55 198.487C49.5 209.487 61 210.987 65.5 209.487L71.5 207.487C181.931 162.746 280.5 73.6653 279 25.1651C208 102.165 170.449 129.016 132.5 142.487C149.79 109.225 176 65.543 177.5 64.043C179 62.543 192.84 88.9874 195.5 88.9874C198.16 88.9874 224.5 69.543 224.5 67.043Z" fill="#00D68F"/>
</g>
<text x="40" y="20" font-family="system-ui, -apple-system, sans-serif" font-size="18" font-weight="600" fill="#FAFAFA">AssetPay</text>
</svg>
